<svg width="41" height="31" viewBox="0 0 41 31" fill="none" xmlns="http://www.w3.org/2000/svg">
<path d="M9.70783 0.825684C15.3445 0.825684 19.4133 5.47911 19.4132 12.3693C19.3771 22.3803 11.8513 29.4584 0.994264 30.8177C-0.0130078 30.9438 -0.4014 29.5484 0.52617 29.136C4.6921 27.2836 6.79611 24.9329 7.06788 22.6063C7.27092 20.868 6.32597 19.3453 5.13942 19.0602C2.06334 18.321 0.0023379 14.4903 0.0023379 10.5312C0.0023379 5.17098 4.34764 0.825684 9.70783 0.825684Z" fill="#CCF0FF"/>
<path d="M30.8835 0.825684C36.5201 0.825684 40.589 5.47911 40.5888 12.3693C40.5527 22.3803 33.0269 29.4584 22.1699 30.8177C21.1626 30.9438 20.7742 29.5484 21.7018 29.136C25.8677 27.2836 27.9717 24.9329 28.2435 22.6063C28.4466 20.868 27.5016 19.3453 26.3151 19.0602C23.239 18.321 21.178 14.4903 21.178 10.5312C21.178 5.17098 25.5233 0.825684 30.8835 0.825684Z" fill="#CCF0FF"/>
</svg>
