<svg width="25" height="27" viewBox="0 0 25 27" fill="none" xmlns="http://www.w3.org/2000/svg">
<path d="M17.0075 17.8392C19.8807 13.3308 19.5195 13.8933 19.6023 13.7757C20.6483 12.3003 21.2012 10.5639 21.2012 8.75391C21.2012 3.95402 17.3062 0 12.5 0C7.7095 0 3.79883 3.94622 3.79883 8.75391C3.79883 10.5627 4.3633 12.3446 5.44361 13.8399L7.99237 17.8393C5.26732 18.2581 0.634766 19.506 0.634766 22.2539C0.634766 23.2556 1.28857 24.6831 4.40327 25.7955C6.57814 26.5722 9.45359 27 12.5 27C18.1966 27 24.3652 25.3931 24.3652 22.2539C24.3652 19.5055 19.7381 18.2589 17.0075 17.8392ZM6.76508 12.9698C6.75638 12.9562 6.74731 12.9429 6.73782 12.9298C5.83886 11.6931 5.38086 10.2274 5.38086 8.75391C5.38086 4.79788 8.56633 1.58203 12.5 1.58203C16.4255 1.58203 19.6191 4.7993 19.6191 8.75391C19.6191 10.2297 19.1698 11.6457 18.3194 12.8498C18.2432 12.9503 18.6408 12.3327 12.5 21.9686L6.76508 12.9698ZM12.5 25.418C6.27766 25.418 2.2168 23.589 2.2168 22.2539C2.2168 21.3566 4.30339 19.8811 8.92714 19.306L11.8329 23.8656C11.9781 24.0935 12.2297 24.2314 12.4999 24.2314C12.7702 24.2314 13.0218 24.0934 13.167 23.8656L16.0727 19.306C20.6966 19.8811 22.7832 21.3566 22.7832 22.2539C22.7832 23.5776 18.7589 25.418 12.5 25.418Z" fill="white"/>
<path d="M12.5 4.79883C10.3192 4.79883 8.54492 6.57308 8.54492 8.75391C8.54492 10.9347 10.3192 12.709 12.5 12.709C14.6808 12.709 16.4551 10.9347 16.4551 8.75391C16.4551 6.57308 14.6808 4.79883 12.5 4.79883ZM12.5 11.127C11.1915 11.127 10.127 10.0624 10.127 8.75391C10.127 7.44541 11.1915 6.38086 12.5 6.38086C13.8085 6.38086 14.873 7.44541 14.873 8.75391C14.873 10.0624 13.8085 11.127 12.5 11.127Z" fill="white"/>
</svg>
