<svg width="56" height="57" viewBox="0 0 56 57" fill="none" xmlns="http://www.w3.org/2000/svg">
<rect width="56" height="57" fill="#F5F5F5"/>
<g clip-path="url(#clip0_354_2)">
<rect width="1440" height="9171" transform="translate(-160 -8745)" fill="white"/>
<path d="M-160 -175C312.086 -298.267 807.914 -298.267 1280 -175V398H-160V-175Z" fill="url(#paint0_radial_354_2)"/>
<path d="M-160 -147C312.086 -270.267 807.914 -270.267 1280 -147V426H-160V-147Z" fill="#201D1D"/>
<path d="M52.1452 13.6258C51.2311 12.0965 50.1761 10.6592 49.0004 9.33691L32.1265 28.0275L49.3712 46.2439C50.5182 44.9014 51.5444 43.4469 52.424 41.9032L39.2124 28.0275L52.1452 13.6258Z" fill="white"/>
<path d="M53.8555 28.0301L55.9914 25.5522C55.7988 23.3273 55.3474 21.1771 54.669 19.1304L46.8904 28.033L54.7438 36.6482C55.3906 34.6446 55.8189 32.5432 56 30.37L53.8555 28.0301Z" fill="white"/>
<path d="M6.95364 9.40283C5.77793 10.7309 4.72871 12.1711 3.82033 13.7061L16.6813 28.0302L3.54437 41.8283C4.42112 43.3777 5.44161 44.8351 6.5857 46.1804L23.7672 28.0302L6.95364 9.40283Z" fill="white"/>
<path d="M1.31369 19.231C0.63816 21.2834 0.192598 23.4422 0.00862379 25.6758L2.03809 28.0301L0 30.2522C0.172476 32.4311 0.595041 34.5411 1.23608 36.5533L9.00036 28.033L1.30794 19.231H1.31369Z" fill="white"/>
<path d="M46.1833 6.58576C44.8351 5.44167 43.3777 4.42119 41.8312 3.54443L28.059 16.6583L13.7377 3.80027C12.2027 4.70864 10.7596 5.755 9.43158 6.93071L28.0561 23.7442L46.1833 6.58576Z" fill="white"/>
<path d="M36.5533 1.23608C34.5411 0.595041 32.4311 0.172476 30.2522 0L28.0531 2.01509L25.7247 0.0028746C23.4883 0.1811 21.3266 0.623787 19.2684 1.29644L28.0589 8.97736L36.5533 1.2332V1.23608Z" fill="white"/>
<path d="M9.4718 49.1126C10.8056 50.2825 12.2487 51.3289 13.7866 52.2344L28.0561 39.4223L41.7823 52.4902C43.3345 51.6163 44.792 50.5987 46.143 49.4575L28.0561 32.3364L9.4718 49.1126Z" fill="white"/>
<path d="M19.3288 54.7293C21.3928 55.3991 23.5573 55.836 25.7995 56.0113L28.0561 54.0652L30.1833 56.0142C32.368 55.8475 34.4808 55.4278 36.4988 54.7896L28.0618 47.1001L19.3317 54.7293H19.3288Z" fill="white"/>
<path d="M39.2526 27.9873H32.1668L32.1265 28.0304L49.3712 46.2467C50.5211 44.9043 51.5444 43.4498 52.424 41.9061L39.2124 28.0304L39.2526 27.9873Z" fill="#BCBEC0"/>
<path d="M53.8929 27.9873H46.9306L46.8904 28.0362L54.7438 36.6513C55.3906 34.6477 55.8189 32.5464 56 30.3732L53.8555 28.0333L53.8929 27.9902V27.9873Z" fill="#BCBEC0"/>
<path d="M23.6062 27.8462L6.95368 9.40283C5.77797 10.7309 4.72875 12.1711 3.82037 13.7061L16.5175 27.8462H23.6033H23.6062Z" fill="#BCBEC0"/>
<path d="M8.8423 27.8461L1.31086 19.228C0.638204 21.2834 0.192641 23.4422 0.00866699 25.6757L1.88003 27.8461H8.83943H8.8423Z" fill="#BCBEC0"/>
<path d="M41.8282 3.5415L28.0532 16.6554L27.9324 16.5462V23.6321L28.0532 23.7413L46.1804 6.58283C44.8322 5.43874 43.3748 4.41826 41.8282 3.5415Z" fill="#BCBEC0"/>
<path d="M30.2522 0L28.0532 2.01509L27.9324 1.90873V8.871L28.0589 8.98024L36.5533 1.23895C34.544 0.595041 32.4341 0.172476 30.2522 0Z" fill="#BCBEC0"/>
<path d="M27.9353 32.4453L9.4718 49.1122C10.8056 50.2822 12.2487 51.3285 13.7866 52.234L27.9353 39.5312V32.4453Z" fill="#BCBEC0"/>
<path d="M27.9353 47.2095L19.3317 54.7294C21.3956 55.3992 23.5602 55.839 25.8024 56.0115L27.9353 54.1717V47.2095Z" fill="#BCBEC0"/>
</g>
<defs>
<radialGradient id="paint0_radial_354_2" cx="0" cy="0" r="1" gradientUnits="userSpaceOnUse" gradientTransform="translate(817.5 -39.4912) rotate(-180) scale(977.5 819.248)">
<stop stop-color="#97DAFF"/>
<stop offset="1" stop-color="#0094DA"/>
</radialGradient>
<clipPath id="clip0_354_2">
<rect width="1440" height="9171" fill="white" transform="translate(-160 -8745)"/>
</clipPath>
</defs>
</svg>
