<svg width="24" height="24" viewBox="0 0 24 24" fill="none" xmlns="http://www.w3.org/2000/svg">
<path d="M7.1999 4.79971H16.7999C17.0121 4.79971 17.2156 4.71542 17.3656 4.56539C17.5156 4.41536 17.5999 4.21188 17.5999 3.99971C17.5999 3.78753 17.5156 3.58405 17.3656 3.43402C17.2156 3.28399 17.0121 3.19971 16.7999 3.19971H7.1999C6.98773 3.19971 6.78425 3.28399 6.63422 3.43402C6.48419 3.58405 6.3999 3.78753 6.3999 3.99971C6.3999 4.21188 6.48419 4.41536 6.63422 4.56539C6.78425 4.71542 6.98773 4.79971 7.1999 4.79971Z" fill="white"/>
<path d="M7.1999 7.9999H16.7999C17.0121 7.9999 17.2156 7.91562 17.3656 7.76559C17.5156 7.61556 17.5999 7.41208 17.5999 7.1999C17.5999 6.98773 17.5156 6.78425 17.3656 6.63422C17.2156 6.48419 17.0121 6.3999 16.7999 6.3999H7.1999C6.98773 6.3999 6.78425 6.48419 6.63422 6.63422C6.48419 6.78425 6.3999 6.98773 6.3999 7.1999C6.3999 7.41208 6.48419 7.61556 6.63422 7.76559C6.78425 7.91562 6.98773 7.9999 7.1999 7.9999Z" fill="white"/>
<path d="M23.248 7.072C22.8079 6.64079 22.2161 6.39949 21.6 6.4V2.336C21.6 1.71645 21.3539 1.12228 20.9158 0.684199C20.4777 0.246114 19.8835 0 19.264 0H4.736C4.11645 0 3.52228 0.246114 3.0842 0.684199C2.64611 1.12228 2.4 1.71645 2.4 2.336V6.4C1.80708 6.39889 1.23562 6.62176 0.8 7.024C0.549922 7.24767 0.349518 7.52128 0.211723 7.82719C0.0739272 8.1331 0.00180131 8.4645 0 8.8V21.6C0 22.2365 0.252856 22.847 0.702944 23.2971C1.15303 23.7471 1.76348 24 2.4 24H21.6C22.2365 24 22.847 23.7471 23.2971 23.2971C23.7471 22.847 24 22.2365 24 21.6V8.8C23.9977 8.47613 23.9299 8.15607 23.8007 7.8591C23.6715 7.56213 23.4835 7.29439 23.248 7.072ZM4 2.336C4 2.1408 4.07754 1.9536 4.21557 1.81557C4.3536 1.67754 4.5408 1.6 4.736 1.6H19.264C19.3607 1.6 19.4564 1.61904 19.5457 1.65602C19.635 1.69301 19.7161 1.74723 19.7844 1.81557C19.8528 1.88391 19.907 1.96505 19.944 2.05434C19.981 2.14364 20 2.23935 20 2.336V8.552L12 14.216L4 8.552V2.336ZM21.6 22.4H2.4C2.18783 22.4 1.98434 22.3157 1.83431 22.1657C1.68429 22.0157 1.6 21.8122 1.6 21.6V8.8L2.736 9.6L11.536 15.84C11.6715 15.9365 11.8337 15.9883 12 15.9883C12.1663 15.9883 12.3285 15.9365 12.464 15.84L21.264 9.6L22.4 8.8V21.6C22.4 21.8122 22.3157 22.0157 22.1657 22.1657C22.0157 22.3157 21.8122 22.4 21.6 22.4Z" fill="white"/>
</svg>
