<svg width="147" height="29" viewBox="0 0 147 29" fill="none" xmlns="http://www.w3.org/2000/svg">
<g id="Group 76">
<path id="Star 1" d="M12.7144 2.754C13.0812 2.01075 14.141 2.01075 14.5078 2.754L17.3786 8.57087C17.5243 8.86601 17.8059 9.07058 18.1316 9.11791L24.5509 10.0507C25.3711 10.1699 25.6986 11.1778 25.1051 11.7564L20.46 16.2842C20.2244 16.5139 20.1168 16.8449 20.1725 17.1693L21.269 23.5627C21.4091 24.3796 20.5517 25.0026 19.8181 24.6169L14.0765 21.5983C13.7851 21.4452 13.4371 21.4452 13.1458 21.5983L7.40417 24.6169C6.67055 25.0026 5.81311 24.3796 5.95322 23.5627L7.04977 17.1693C7.10541 16.8449 6.99786 16.5139 6.76217 16.2842L2.11712 11.7564C1.52361 11.1778 1.85112 10.1699 2.67134 10.0507L9.09064 9.11791C9.41635 9.07058 9.69792 8.86601 9.84358 8.57087L12.7144 2.754Z" fill="#FFCE50"/>
<path id="Star 2" d="M42.6588 2.754C43.0256 2.01075 44.0855 2.01075 44.4523 2.754L47.3231 8.57087C47.4688 8.86601 47.7503 9.07058 48.076 9.11791L54.4953 10.0507C55.3155 10.1699 55.6431 11.1778 55.0495 11.7564L50.4045 16.2842C50.1688 16.5139 50.0613 16.8449 50.1169 17.1693L51.2134 23.5627C51.3536 24.3796 50.4961 25.0026 49.7625 24.6169L44.0209 21.5983C43.7296 21.4452 43.3815 21.4452 43.0902 21.5983L37.3486 24.6169C36.615 25.0026 35.7576 24.3796 35.8977 23.5627L36.9942 17.1693C37.0499 16.8449 36.9423 16.5139 36.7066 16.2842L32.0616 11.7564C31.4681 11.1778 31.7956 10.1699 32.6158 10.0507L39.0351 9.11791C39.3608 9.07058 39.6424 8.86601 39.788 8.57087L42.6588 2.754Z" fill="#FFCE50"/>
<path id="Star 3" d="M72.6033 2.754C72.9701 2.01075 74.0299 2.01075 74.3967 2.754L77.2675 8.57087C77.4132 8.86601 77.6948 9.07058 78.0205 9.11791L84.4398 10.0507C85.26 10.1699 85.5875 11.1778 84.994 11.7564L80.3489 16.2842C80.1133 16.5139 80.0057 16.8449 80.0613 17.1693L81.1579 23.5627C81.298 24.3796 80.4406 25.0026 79.7069 24.6169L73.9653 21.5983C73.674 21.4452 73.326 21.4452 73.0347 21.5983L67.2931 24.6169C66.5594 25.0026 65.702 24.3796 65.8421 23.5627L66.9387 17.1693C66.9943 16.8449 66.8867 16.5139 66.6511 16.2842L62.006 11.7564C61.4125 11.1778 61.74 10.1699 62.5602 10.0507L68.9795 9.11791C69.3052 9.07058 69.5868 8.86601 69.7325 8.57087L72.6033 2.754Z" fill="#FFCE50"/>
<path id="Star 4" d="M102.548 2.754C102.915 2.01075 103.974 2.01075 104.341 2.754L107.212 8.57087C107.358 8.86601 107.639 9.07058 107.965 9.11791L114.384 10.0507C115.204 10.1699 115.532 11.1778 114.938 11.7564L110.293 16.2842C110.058 16.5139 109.95 16.8449 110.006 17.1693L111.102 23.5627C111.242 24.3796 110.385 25.0026 109.651 24.6169L103.91 21.5983C103.618 21.4452 103.27 21.4452 102.979 21.5983L97.2375 24.6169C96.5039 25.0026 95.6464 24.3796 95.7866 23.5627L96.8831 17.1693C96.9387 16.8449 96.8312 16.5139 96.5955 16.2842L91.9505 11.7564C91.3569 11.1778 91.6844 10.1699 92.5047 10.0507L98.924 9.11791C99.2497 9.07058 99.5312 8.86601 99.6769 8.57087L102.548 2.754Z" fill="#FFCE50"/>
<path id="Star 5" d="M132.492 2.754C132.859 2.01075 133.919 2.01075 134.286 2.754L137.156 8.57087C137.302 8.86601 137.584 9.07058 137.909 9.11791L144.329 10.0507C145.149 10.1699 145.476 11.1778 144.883 11.7564L140.238 16.2842C140.002 16.5139 139.895 16.8449 139.95 17.1693L141.047 23.5627C141.187 24.3796 140.329 25.0026 139.596 24.6169L133.854 21.5983C133.563 21.4452 133.215 21.4452 132.924 21.5983L127.182 24.6169C126.448 25.0026 125.591 24.3796 125.731 23.5627L126.828 17.1693C126.883 16.8449 126.776 16.5139 126.54 16.2842L121.895 11.7564C121.301 11.1778 121.629 10.1699 122.449 10.0507L128.868 9.11791C129.194 9.07058 129.476 8.86601 129.621 8.57087L132.492 2.754Z" fill="#FFCE50"/>
</g>
</svg>
